<svg width="50" height="51" viewBox="0 0 50 51" fill="none" xmlns="http://www.w3.org/2000/svg">
<g clip-path="url(#clip0_32_2760)">
<path d="M37.9154 30.813L25.2479 18.1455L26.0136 17.3797L12.5165 3.88271C9.99584 1.36201 5.95949 1.36201 3.43867 3.88271C0.917844 6.40341 0.917968 10.4398 3.43867 12.9606L16.9437 26.4656L17.7014 25.7078L30.369 38.3754L37.9154 30.813Z" fill="white"/>
<path d="M16.9344 22.1119L5.56716 10.8244C4.26696 9.5242 4.26696 7.39429 5.56716 6.02227C6.86737 4.72207 8.99728 4.72207 10.3693 6.02227L21.7445 17.3816L16.9344 22.1119Z" fill="#117BD4"/>
<path d="M44.3992 37.6723L38.8313 34.314L33.8696 39.2757L37.2279 44.8436L48.8185 49.2628L44.3992 37.6723Z" fill="white"/>
<path d="M23.378 27.2711L26.8864 23.7627L25.8091 22.6854L22.3007 26.1938L23.378 27.2711Z" fill="#117BD4"/>
<path d="M26.4376 30.3258L29.946 26.8174L28.8687 25.7401L25.3603 29.2485L26.4376 30.3258Z" fill="#117BD4"/>
<path d="M29.4823 33.3719L32.9907 29.8635L31.9134 28.7862L28.405 32.2946L29.4823 33.3719Z" fill="#117BD4"/>
<path d="M39.3525 40.8857L40.43 39.8086L39.3528 38.7311L38.2754 39.8083L39.3525 40.8857Z" fill="#117BD4"/>
<path d="M42.0181 43.5561L43.0954 42.4788L42.0181 41.4015L40.9408 42.4788L42.0181 43.5561Z" fill="#117BD4"/>
<path d="M49.1564 48.7979L44.761 37.2787C44.6818 37.1282 44.6105 36.9776 44.46 36.8984L39.0825 33.6422L39.7636 32.9608L38.1005 31.2971L38.7024 30.695L26.1339 18.1934L26.8942 17.4328L13.4861 4.0281C14.2464 3.49734 15.2997 3.5765 15.9887 4.1786L25.6032 13.7965C26.2844 14.4779 27.1158 14.7789 28.0267 14.7789C28.9375 14.7789 29.769 14.4778 30.4501 13.7965L29.3888 12.7348C28.6286 13.4954 27.4168 13.4954 26.6645 12.7348L17.05 3.11694C16.3689 2.43556 15.5374 2.13457 14.6266 2.13457C13.795 2.13457 13.0347 2.43568 12.3536 2.96645C11.142 1.90479 9.5501 1.37402 7.88694 1.37402C5.9942 1.37402 4.17264 2.13457 2.88961 3.49721C0.0860302 6.30179 0.0860302 10.8493 2.88961 13.5746L16.8203 27.5102L17.5806 26.7496L30.1491 39.3305L30.751 38.7205L32.4142 40.3842L33.0953 39.7029L36.3503 45.0822C36.4295 45.2327 36.58 45.312 36.7305 45.3833L48.2537 49.7803C48.3328 49.8595 48.9348 49.7803 49.0852 49.6298C49.1564 49.408 49.3148 49.0989 49.1564 48.7979ZM16.4402 25.0147L3.9509 12.513C1.75716 10.3185 1.75716 6.75339 3.9509 4.55887C5.01218 3.49721 6.37434 2.89512 7.88694 2.89512C9.39954 2.89512 10.7618 3.50518 11.9022 4.55887L24.4708 17.1318L16.4402 25.0147ZM30.0779 37.136L18.6419 25.6959L25.0806 19.2549L36.5167 30.695L30.0779 37.136ZM37.4986 44.0998L34.2436 38.7997C33.713 38.1183 33.0318 38.5699 32.9527 38.7997L31.8202 37.6588L37.0473 32.43L38.1797 33.5628C37.95 33.5628 37.4986 34.3947 38.1797 34.8541L43.4779 38.1103L47.1922 47.8074L37.4986 44.0998Z" fill="#117BD4"/>
</g>
<defs>
<clipPath id="clip0_32_2760">
<rect width="50" height="50" fill="white" transform="translate(0 0.592285)"/>
</clipPath>
</defs>
</svg>
